<?xml version="1.0" standalone="no"?>
<!DOCTYPE svg PUBLIC "-//W3C//DTD SVG 20010904//EN"
 "http://www.w3.org/TR/2001/REC-SVG-20010904/DTD/svg10.dtd">
<svg version="1.0" xmlns="http://www.w3.org/2000/svg"
 width="688.000000pt" height="691.000000pt" viewBox="0 0 688.000000 691.000000"
 preserveAspectRatio="xMidYMid meet">

<g transform="translate(0.000000,691.000000) scale(0.100000,-0.100000)"
fill="#000000" stroke="none">
<path d="M2665 6049 c-104 -21 -351 -69 -548 -108 l-358 -69 -57 -49 c-106
-91 -703 -598 -755 -641 -246 -204 -247 -205 -247 -240 0 -27 38 -94 187 -326
103 -160 190 -292 195 -294 4 -2 8 -8 8 -13 0 -5 133 -215 295 -466 162 -252
696 -1083 1188 -1848 l894 -1390 35 -3 c30 -3 40 2 64 31 l29 35 140 4 c110 3
147 8 175 22 59 31 168 124 223 191 29 34 131 153 227 263 162 185 181 204
264 254 49 29 116 74 149 100 l60 48 86 0 c54 0 92 5 99 12 7 7 12 33 12 58 0
38 -5 51 -30 75 -26 25 -30 36 -30 80 0 28 -5 56 -12 63 -9 9 -8 16 5 30 13
14 17 38 17 95 0 42 -5 79 -10 82 -7 4 -5 14 5 28 24 34 19 108 -9 150 l-25
36 85 164 c46 90 84 174 84 185 0 11 5 24 10 27 6 3 10 23 10 44 0 52 -23 71
-86 71 -43 0 -55 -5 -79 -30 -24 -25 -75 -42 -75 -25 0 3 70 114 156 248 87
133 219 339 294 457 75 118 188 294 250 390 62 96 248 386 412 644 268 419
299 472 296 504 -3 34 -31 61 -524 487 l-521 450 -199 38 c-110 21 -363 69
-564 107 l-365 70 -635 -1 -635 -1 -190 -39z m1652 -55 c125 -25 233 -49 240
-52 8 -5 -6 -22 -43 -51 -34 -26 -59 -40 -63 -33 -7 11 -217 -162 -214 -177 1
-5 -8 -17 -20 -27 l-22 -19 19 23 c24 27 6 30 -19 2 -21 -23 -44 -28 -25 -5
11 13 10 14 -4 9 -10 -4 -15 -12 -12 -19 2 -7 -4 -21 -14 -30 -11 -10 -17 -23
-13 -29 3 -6 3 -8 -2 -4 -4 4 -17 3 -28 -3 -14 -8 -18 -8 -13 0 14 22 -9 10
-41 -21 -33 -32 -57 -33 -32 -1 12 16 -42 -30 -181 -153 -57 -50 -116 -108
-97 -94 10 7 17 8 17 2 0 -23 -31 -19 -77 10 -26 17 -93 49 -148 70 l-100 39
-225 6 -225 6 -165 -43 c-91 -23 -182 -51 -204 -63 -76 -43 -212 -273 -291
-492 -10 -27 -31 -77 -46 -110 l-29 -60 0 58 c0 72 0 70 -12 85 -9 11 -13 11
-20 0 -6 -8 -11 -9 -14 -3 -4 10 -63 10 -111 -1 -25 -5 -33 -48 -10 -57 9 -4
8 -8 -3 -16 -13 -10 -13 -12 0 -21 10 -6 11 -10 3 -10 -7 0 -13 -11 -13 -25 0
-14 6 -25 13 -25 9 0 9 -2 -1 -8 -8 -6 -12 -28 -11 -64 1 -30 -1 -60 -5 -67
-9 -14 23 -15 44 -1 13 9 13 11 0 20 -13 9 -13 10 0 10 8 0 21 -4 28 -9 11 -6
11 -10 0 -18 -15 -12 -60 -28 -70 -25 -5 1 -8 -30 -8 -68 0 -74 1 -76 55 -70
11 1 17 -1 13 -6 -4 -4 -21 -7 -37 -6 -24 0 -30 -4 -35 -30 -10 -52 -7 -128 6
-128 6 0 9 -3 6 -6 -4 -3 -15 -1 -26 5 -15 8 -23 7 -32 -4 -7 -8 -19 -15 -27
-15 -11 0 -13 3 -5 13 16 19 22 88 26 284 2 126 0 185 -8 191 -6 5 -32 10 -58
11 l-47 2 1 -39 c0 -21 -3 -71 -7 -111 -5 -54 -4 -76 6 -88 10 -12 10 -15 2
-9 -10 5 -13 -3 -13 -32 0 -41 -16 -57 -45 -46 -13 5 -15 -7 -15 -74 0 -90 -8
-100 -68 -83 -22 7 -30 6 -26 -1 4 -6 0 -14 -7 -19 -19 -12 -29 -11 -29 2 0 5
6 7 13 3 9 -6 9 -4 0 6 -8 9 -36 14 -70 14 l-58 1 -3 39 c-2 22 -11 46 -20 53
-16 13 -15 14 3 11 16 -3 21 -12 23 -51 2 -34 7 -47 18 -47 8 0 13 4 10 9 -3
4 5 6 19 4 21 -4 24 -1 27 28 3 30 -1 35 -27 44 -24 8 -30 16 -29 38 0 15 -5
27 -10 27 -6 0 -4 5 4 10 12 8 12 10 1 10 -10 0 -11 3 -2 13 6 8 9 16 6 19 -3
2 -1 27 4 54 6 32 6 53 -1 61 -7 9 -7 13 0 13 5 0 11 49 14 117 5 134 0 145
-55 136 -21 -3 -37 -1 -42 6 -5 8 1 10 18 6 14 -4 27 -2 31 3 3 5 -16 8 -47 6
-77 -5 -102 -10 -100 -22 1 -5 -6 -12 -17 -15 -13 -3 -17 -1 -13 10 5 13 2 13
-15 4 -14 -7 -22 -22 -23 -39 -1 -21 -2 -22 -6 -7 -3 11 -9 25 -15 30 -6 6 -7
3 -2 -9 6 -15 4 -17 -6 -11 -9 5 -11 4 -6 -4 13 -21 14 -62 2 -67 -19 -7 -12
-57 9 -64 17 -6 17 -7 -3 -12 -12 -4 -20 -2 -17 2 3 5 1 11 -5 15 -6 4 -10 -6
-10 -25 0 -22 -4 -29 -12 -24 -10 6 -10 5 -1 -8 7 -8 10 -18 7 -21 -4 -3 -7
-26 -8 -50 -1 -32 3 -43 11 -40 7 3 13 0 13 -6 0 -6 -4 -11 -10 -11 -5 0 -10
-5 -10 -11 0 -5 5 -7 11 -3 7 4 10 -15 8 -64 -4 -77 3 -96 25 -66 8 10 18 16
21 12 4 -4 0 -15 -9 -24 -10 -9 -15 -23 -12 -30 3 -8 1 -14 -3 -14 -5 0 -12 7
-15 17 -6 14 -8 14 -21 -3 -8 -10 -15 -15 -15 -10 0 5 -6 4 -13 -2 -15 -13
-30 -2 -75 56 -18 23 -30 47 -27 52 3 6 2 10 -2 10 -5 0 -31 35 -58 78 -27 42
-114 173 -192 290 -79 118 -143 217 -143 220 0 9 -7 2 545 466 248 208 460
388 472 399 17 15 78 31 245 63 123 24 369 72 548 108 l325 64 602 1 602 1
228 -46z m283 -63 c0 -5 -15 -19 -33 -30 -19 -11 -45 -31 -58 -43 -14 -13 -54
-45 -90 -72 -65 -49 -37 -19 56 59 26 22 61 52 79 67 33 29 46 34 46 19z m43
-8 c3 -5 -1 -14 -9 -21 -11 -10 -14 -10 -14 0 0 9 -3 9 -10 -2 -5 -8 -13 -11
-17 -6 -4 4 1 14 11 22 22 16 33 18 39 7z m106 -19 c59 -8 194 -34 197 -37 5
-4 -304 -197 -315 -197 -5 0 -12 -7 -15 -16 -4 -9 -9 -14 -13 -11 -3 4 -19 -3
-35 -14 -34 -25 -40 -21 -43 25 -3 28 4 41 36 75 22 23 38 45 34 50 -3 5 3 7
13 4 20 -5 49 38 37 56 -3 6 -3 11 2 10 19 -3 33 2 33 12 0 7 -11 9 -26 6
l-25 -4 27 29 c16 16 34 26 43 23 8 -3 30 -8 50 -11z m-334 -90 c-73 -63 -165
-134 -165 -127 1 5 24 26 51 48 28 22 70 57 93 77 22 21 46 38 51 37 6 0 -8
-15 -30 -35z m75 -104 c0 -5 -4 -10 -10 -10 -5 0 -10 5 -10 10 0 6 5 10 10 10
6 0 10 -4 10 -10z m-200 -24 c0 -2 -8 -10 -17 -17 -16 -13 -17 -12 -4 4 13 16
21 21 21 13z m50 -115 c0 -23 -16 -36 -25 -21 -9 14 1 40 15 40 5 0 10 -9 10
-19z m40 9 c0 -5 -4 -10 -10 -10 -5 0 -10 5 -10 10 0 6 5 10 10 10 6 0 10 -4
10 -10z m-341 -49 c-44 -38 -51 -31 -7 7 18 17 35 28 37 26 3 -2 -11 -17 -30
-33z m-52 -23 c0 -13 -12 -33 -28 -46 l-28 -23 2 23 c1 17 38 64 53 68 1 0 1
-10 1 -22z m-70 -58 c-1 -11 -13 -31 -26 -43 -14 -12 -19 -14 -12 -4 11 14 11
17 0 17 -7 0 -3 10 11 25 28 30 29 30 27 5z m-60 -55 c0 -8 -12 -25 -26 -37
-14 -13 -19 -15 -12 -5 11 14 11 17 0 17 -9 1 -5 8 10 20 28 24 28 24 28 5z
m-75 -78 c-16 -15 -20 -16 -18 -5 3 24 29 53 34 38 3 -7 -5 -21 -16 -33z
m2091 -64 c25 -29 11 -71 -27 -78 -17 -4 -39 -9 -48 -11 -20 -6 -18 19 4 46 9
10 14 21 11 24 -4 3 -1 6 6 6 8 0 11 7 7 15 -8 21 27 19 47 -2z m143 -130 c-7
-8 -138 -34 -143 -29 -3 3 15 10 39 16 23 6 54 15 68 19 25 8 46 4 36 -6z
m-171 -43 c-11 -5 -31 -9 -45 -9 -23 0 -23 1 -5 9 11 5 31 9 45 9 23 0 23 -1
5 -9z m-964 -77 c13 -16 12 -17 -3 -4 -17 13 -22 21 -14 21 2 0 10 -8 17 -17z
m1349 -89 c0 -3 -60 -98 -132 -210 -73 -113 -139 -216 -146 -230 -8 -14 -20
-28 -28 -31 -8 -3 -11 -9 -8 -14 3 -5 -9 -9 -25 -9 -30 0 -31 -1 -31 -47 0
-93 -12 -31 -21 109 -11 182 -13 188 -45 188 -20 0 -25 -4 -20 -16 3 -9 6 -20
6 -25 0 -5 8 -10 18 -10 15 -1 15 -2 -2 -6 -17 -5 -18 -13 -13 -100 3 -52 8
-97 11 -100 3 -3 12 0 21 7 9 8 15 8 15 2 0 -6 -9 -14 -20 -17 -16 -5 -20 -16
-21 -58 l-2 -52 -7 60 c-4 33 -11 115 -15 182 -5 91 -10 123 -21 127 -12 5
-13 -5 -8 -59 6 -57 5 -65 -9 -60 -12 5 -15 21 -14 68 2 55 0 62 -16 60 -15
-1 -17 4 -12 25 4 15 7 31 8 37 1 5 -11 11 -28 13 -38 4 -49 15 -41 40 7 21
24 24 491 111 122 23 115 22 115 15z m-4740 -124 c0 -5 -2 -10 -4 -10 -3 0 -8
5 -11 10 -3 6 -1 10 4 10 6 0 11 -4 11 -10z m-20 -30 c0 -5 -7 -10 -16 -10 -8
0 -12 5 -9 10 3 6 10 10 16 10 5 0 9 -4 9 -10z m690 1 c0 -5 -11 -8 -24 -7
-13 0 -22 4 -19 9 6 10 43 9 43 -2z m-623 -17 c-3 -3 -12 -4 -19 -1 -8 3 -5 6
6 6 11 1 17 -2 13 -5z m-72 -14 c3 -5 1 -10 -4 -10 -6 0 -11 5 -11 10 0 6 2
10 4 10 3 0 8 -4 11 -10z m-58 -6 c-3 -3 -12 -4 -19 -1 -8 3 -5 6 6 6 11 1 17
-2 13 -5z m707 -6 c-3 -4 -9 -8 -15 -8 -5 0 -9 4 -9 8 0 5 7 9 15 9 8 0 12 -4
9 -9z m-774 -18 c0 -5 -4 -10 -10 -10 -5 0 -10 5 -10 10 0 6 5 10 10 10 6 0
10 -4 10 -10z m823 -6 c-3 -9 -9 -12 -12 -7 -3 4 -10 11 -15 16 -5 4 0 7 12 7
15 0 20 -4 15 -16z m1627 -39 c17 -18 54 -201 67 -331 6 -50 -14 -74 -61 -74
-58 0 -146 -120 -130 -178 6 -23 8 -24 11 -7 10 55 14 65 22 60 5 -3 23 3 40
12 28 17 31 17 47 1 13 -12 14 -22 7 -45 -11 -30 -33 -35 -83 -19 -19 6 -22 5
-14 -4 6 -6 31 -14 54 -17 35 -5 46 -2 57 12 11 17 13 12 13 -41 0 -83 -36
-210 -117 -419 -38 -99 -78 -202 -88 -230 -51 -138 -136 -152 -370 -63 -68 27
-92 42 -158 107 l-77 75 27 22 27 21 -2 129 -3 129 35 23 c20 12 37 22 38 22
2 0 2 -35 0 -78 -3 -66 0 -85 21 -132 14 -30 33 -64 41 -74 25 -31 30 -10 6
24 -12 17 -26 46 -31 65 -13 47 5 148 37 202 22 39 89 92 100 80 3 -3 -13 -33
-36 -67 -64 -94 -83 -155 -64 -204 11 -30 19 -16 16 28 -5 55 21 115 83 196
39 51 51 60 78 60 77 1 173 80 218 181 13 27 27 49 33 49 19 0 74 228 85 350
6 63 16 133 22 154 10 36 12 38 21 20 6 -10 19 -28 28 -39z m-2432 27 c-10 -2
-18 -8 -18 -13 0 -5 -8 -9 -17 -9 -15 0 -13 4 7 19 13 11 29 17 35 13 6 -4 2
-8 -7 -10z m165 -16 c21 -16 22 -26 1 -26 -8 0 -12 -5 -8 -11 4 -7 -1 -10 -11
-7 -11 2 -20 14 -22 31 -4 30 11 35 40 13z m4187 -6 c0 -5 -4 -10 -10 -10 -5
0 -10 5 -10 10 0 6 5 10 10 10 6 0 10 -4 10 -10z m-4345 -20 c3 -5 -3 -10 -14
-10 -12 0 -21 5 -21 10 0 6 6 10 14 10 8 0 18 -4 21 -10z m565 -4 c0 -3 -4 -8
-10 -11 -5 -3 -10 -1 -10 4 0 6 5 11 10 11 6 0 10 -2 10 -4z m3738 -48 c3 -49
-12 -42 -23 10 -5 23 -3 32 7 32 8 0 14 -15 16 -42z m32 2 c4 0 6 -9 3 -20 -8
-32 -23 -12 -22 28 1 23 3 29 6 15 2 -13 8 -23 13 -23z m-80 20 c0 -5 -4 -10
-10 -10 -5 0 -10 5 -10 10 0 6 5 10 10 10 6 0 10 -4 10 -10z m-4196 -16 c3 -8
2 -12 -4 -9 -6 3 -10 10 -10 16 0 14 7 11 14 -7z m3546 -4 c-8 -5 -22 -10 -30
-10 -13 0 -13 1 0 10 8 5 22 10 30 10 13 0 13 -1 0 -10z m-3583 -22 c-3 -8 -6
-5 -6 6 -1 11 2 17 5 13 3 -3 4 -12 1 -19z m4218 13 c3 -5 1 -12 -5 -16 -5 -3
-10 0 -10 7 0 9 -3 9 -10 -2 -5 -8 -10 -10 -10 -4 0 22 24 32 35 15z m35 -17
c0 -8 -4 -14 -10 -14 -5 0 -10 9 -10 21 0 11 5 17 10 14 6 -3 10 -13 10 -21z
m-4343 -16 c-3 -7 -5 -2 -5 12 0 14 2 19 5 13 2 -7 2 -19 0 -25z m213 16 c0
-2 -9 -4 -21 -4 -11 0 -18 4 -14 10 5 8 35 3 35 -6z m3470 -14 c0 -16 -4 -30
-10 -30 -5 0 -10 7 -10 15 0 8 -4 15 -10 15 -5 0 -10 5 -10 11 0 5 5 7 10 4 6
-3 10 -1 10 4 0 6 5 11 10 11 6 0 10 -13 10 -30z m-3445 -20 c-4 -6 -11 -8
-16 -5 -5 4 -9 1 -9 -4 0 -6 -9 -11 -21 -11 -11 0 -18 4 -14 9 3 5 -7 12 -22
14 -16 2 -2 5 30 6 37 0 56 -3 52 -9z m3201 -10 c0 -11 -4 -20 -8 -20 -5 0
-15 0 -23 0 -12 0 -12 3 3 19 22 25 30 25 28 1z m181 -2 c-3 -8 -6 -5 -6 6 -1
11 2 17 5 13 3 -3 4 -12 1 -19z m-3626 -15 c-12 -20 -14 -14 -5 12 4 9 9 14
11 11 3 -2 0 -13 -6 -23z m67 9 c2 -7 -1 -12 -6 -12 -18 0 -42 12 -42 21 0 13
43 4 48 -9z m787 -11 c-3 -6 -14 -10 -23 -10 -15 1 -15 2 1 6 9 2 17 9 17 15
0 6 3 9 6 5 3 -3 3 -10 -1 -16z m3505 4 c0 -8 -4 -15 -10 -15 -5 0 -10 7 -10
15 0 8 5 15 10 15 6 0 10 -7 10 -15z m-1028 -25 c-4 -3 -11 -9 -15 -15 -5 -6
-7 -3 -3 8 3 10 0 17 -7 17 -8 0 -7 4 3 10 15 9 36 -9 22 -20z m51 -2 c-3 -13
-10 -29 -16 -35 -6 -9 -6 -13 2 -13 6 0 11 5 11 10 0 6 7 10 15 10 8 0 15 -4
15 -10 0 -5 -5 -10 -11 -10 -6 0 -9 -6 -6 -13 3 -8 1 -20 -5 -28 -8 -11 -9
-11 -4 3 3 10 0 20 -6 24 -7 5 -9 -4 -6 -25 5 -34 -11 -42 -32 -16 -10 12 -9
16 2 20 10 4 13 15 10 30 -2 14 3 36 12 50 20 31 26 32 19 3z m1027 18 c0 -3
-4 -8 -10 -11 -5 -3 -10 -1 -10 4 0 6 5 11 10 11 6 0 10 -2 10 -4z m-780 -51
c0 -25 -3 -45 -8 -45 -4 0 -6 20 -4 45 2 25 6 45 8 45 2 0 4 -20 4 -45z m840
15 c0 -5 -4 -10 -9 -10 -5 0 -18 -3 -28 -6 -16 -5 -16 -4 1 10 23 18 36 20 36
6z m-778 -25 c3 -14 1 -28 -3 -31 -5 -3 -9 9 -9 25 0 38 6 40 12 6z m-355 -7
c-3 -8 -6 -5 -6 6 -1 11 2 17 5 13 3 -3 4 -12 1 -19z m-3097 2 c0 -5 -13 -10
-30 -10 -16 0 -30 5 -30 10 0 6 14 10 30 10 17 0 30 -4 30 -10z m2804 -11 c-6
-11 -24 -2 -24 11 0 5 7 7 15 4 8 -4 12 -10 9 -15z m-2974 -9 c0 -5 -9 -10
-20 -10 -11 0 -20 5 -20 10 0 6 9 10 20 10 11 0 20 -4 20 -10z m2870 -4 c0 -3
-4 -8 -10 -11 -5 -3 -10 -1 -10 4 0 6 5 11 10 11 6 0 10 -2 10 -4z m1190 0 c0
-3 -4 -8 -10 -11 -5 -3 -10 -1 -10 4 0 6 5 11 10 11 6 0 10 -2 10 -4z m-983
-28 c-3 -8 -6 -5 -6 6 -1 11 2 17 5 13 3 -3 4 -12 1 -19z m173 15 c0 -5 -5
-15 -10 -23 -8 -12 -10 -11 -10 8 0 12 5 22 10 22 6 0 10 -3 10 -7z m-3260
-12 c0 -10 -42 -23 -49 -15 -7 6 20 24 37 24 6 0 12 -4 12 -9z m3063 -8 c-7
-2 -19 -2 -25 0 -7 3 -2 5 12 5 14 0 19 -2 13 -5z m1327 3 c0 -3 -4 -8 -10
-11 -5 -3 -10 -1 -10 4 0 6 5 11 10 11 6 0 10 -2 10 -4z m-273 -12 c-3 -3 -12
-4 -19 -1 -8 3 -5 6 6 6 11 1 17 -2 13 -5z m48 -3 c-3 -5 3 -11 12 -14 15 -3
15 -4 -1 -3 -20 1 -36 26 -16 26 6 0 9 -4 5 -9z m55 -46 c0 -45 -3 -55 -17
-55 -13 0 -14 3 -5 12 7 7 12 31 12 55 0 24 2 43 5 43 3 0 5 -25 5 -55z
m-3640 35 c0 -5 -5 -10 -11 -10 -5 0 -7 5 -4 10 3 6 8 10 11 10 2 0 4 -4 4
-10z m3490 0 c0 -5 -4 -10 -10 -10 -5 0 -10 5 -10 10 0 6 5 10 10 10 6 0 10
-4 10 -10z m-4104 -47 c-11 -11 -17 4 -9 23 7 18 8 18 11 1 2 -10 1 -21 -2
-24z m97 17 c-5 -19 -23 -29 -23 -12 0 7 20 32 26 32 1 0 0 -9 -3 -20z m3347
-6 c0 -8 -8 -14 -17 -14 -15 0 -16 2 -3 10 13 8 13 10 -2 10 -9 0 -19 4 -22 9
-3 4 6 6 19 3 14 -2 25 -11 25 -18z m940 16 c0 -5 -4 -10 -10 -10 -5 0 -10 5
-10 10 0 6 5 10 10 10 6 0 10 -4 10 -10z m-1035 -10 c3 -5 1 -10 -4 -10 -6 0
-11 5 -11 10 0 6 2 10 4 10 3 0 8 -4 11 -10z m995 -5 c0 -8 8 -15 17 -15 15 0
15 -1 -1 -13 -14 -10 -17 -23 -13 -59 l5 -46 -34 1 c-42 1 -45 17 -3 17 22 0
28 4 22 13 -4 6 -6 20 -5 30 2 10 -4 29 -12 43 -15 22 -15 24 -1 24 9 0 13 5
10 10 -3 6 -1 10 4 10 6 0 11 -7 11 -15z m172 -7 c-7 -7 -12 -8 -12 -2 0 14
12 26 19 19 2 -3 -1 -11 -7 -17z m-4332 -7 c0 -5 -9 -7 -20 -4 -11 3 -20 7
-20 9 0 2 9 4 20 4 11 0 20 -4 20 -9z m-120 -5 c0 -3 -4 -8 -10 -11 -5 -3 -10
-1 -10 4 0 6 5 11 10 11 6 0 10 -2 10 -4z m730 -6 c0 -5 -5 -10 -11 -10 -5 0
-7 5 -4 10 3 6 8 10 11 10 2 0 4 -4 4 -10z m2527 -15 c-8 -18 -28 -20 -24 -2
2 13 19 28 25 22 3 -2 2 -11 -1 -20z m47 10 c-4 -8 -10 -12 -15 -9 -11 6 -2
24 11 24 5 0 7 -7 4 -15z m-3234 1 c0 -3 -13 -11 -30 -20 -24 -12 -30 -12 -30
-1 0 13 17 21 48 24 6 0 12 -1 12 -3z m3290 -6 c0 -5 -2 -10 -4 -10 -3 0 -8 5
-11 10 -3 6 -1 10 4 10 6 0 11 -4 11 -10z m48 -38 c2 -33 0 -42 -12 -42 -12 0
-16 11 -16 46 0 59 24 55 28 -4z m982 38 c0 -5 -4 -10 -10 -10 -5 0 -10 5 -10
10 0 6 5 10 10 10 6 0 10 -4 10 -10z m-1052 -35 c-2 -15 -7 -21 -16 -17 -11 4
-11 6 -1 13 10 6 10 11 -1 23 -11 14 -10 16 3 10 10 -3 16 -16 15 -29z m1028
8 c22 -30 16 -39 -21 -35 -38 5 -50 32 -14 32 11 0 17 5 14 10 -11 17 7 11 21
-7z m-3816 -34 c0 -20 -4 -29 -12 -26 -12 3 -18 42 -10 60 7 17 22 -6 22 -34z
m2137 -21 c-2 -13 -4 -3 -4 22 0 25 2 35 4 23 2 -13 2 -33 0 -45z m589 50 c4
-6 3 -8 -4 -4 -6 3 -13 2 -17 -3 -3 -6 -13 -7 -23 -4 -14 6 -13 8 8 14 14 4
26 7 27 8 1 1 5 -4 9 -11z m194 -22 c0 -34 -16 -41 -31 -15 -9 17 -8 23 2 30
22 14 29 10 29 -15z m790 14 c0 -5 -16 -11 -35 -11 -19 -1 -41 -2 -47 -3 -21
-4 -31 6 -17 15 19 12 99 11 99 -1z m-170 -4 c0 -3 -4 -8 -10 -11 -5 -3 -10
-1 -10 4 0 6 5 11 10 11 6 0 10 -2 10 -4z m50 -26 c0 -5 -2 -10 -4 -10 -3 0
-8 5 -11 10 -3 6 -1 10 4 10 6 0 11 -4 11 -10z m-1690 -12 c0 -27 -17 -36 -62
-34 -49 1 -57 6 -35 24 10 9 33 14 85 21 6 0 12 -5 12 -11z m1920 -1 c0 -5 7
-3 17 4 15 13 15 12 2 -8 -15 -25 -39 -38 -39 -22 0 6 -4 8 -9 4 -12 -7 -24
12 -16 24 7 12 45 10 45 -2z m-1560 -1 c0 -3 -4 -8 -10 -11 -5 -3 -10 -1 -10
4 0 6 5 11 10 11 6 0 10 -2 10 -4z m-2530 -40 c-14 -14 -22 -2 -14 18 5 14 9
15 15 4 4 -7 4 -17 -1 -22z m2870 4 c0 -5 -2 -10 -4 -10 -3 0 -8 5 -11 10 -3
6 -1 10 4 10 6 0 11 -4 11 -10z m70 0 c0 -5 -2 -10 -4 -10 -3 0 -8 5 -11 10
-3 6 -1 10 4 10 6 0 11 -4 11 -10z m-2978 -18 c146 -4 270 -10 274 -14 4 -5
-4 -8 -17 -8 -20 -1 -16 -5 20 -22 37 -18 41 -23 28 -33 -14 -10 -12 -13 18
-22 19 -6 33 -7 30 -3 -3 4 4 6 15 3 11 -3 18 -9 15 -13 -3 -5 5 -16 17 -25
20 -13 21 -17 8 -25 -14 -9 -44 -14 -63 -11 -5 1 -6 -8 -2 -19 5 -16 3 -19
-12 -14 -17 5 -17 5 0 -6 9 -6 15 -15 12 -21 -11 -17 6 -51 22 -45 11 5 14 1
10 -13 -3 -11 -1 -21 5 -23 5 -2 10 -10 11 -18 2 -8 5 -19 8 -25 3 -5 5 -23 5
-40 -1 -16 3 -33 7 -36 4 -3 10 -31 12 -62 2 -31 8 -64 14 -74 6 -13 5 -24 -5
-37 -12 -17 -11 -21 4 -32 16 -12 16 -14 -3 -28 -11 -8 -17 -16 -12 -16 4 0 1
-15 -7 -33 -9 -22 -10 -39 -4 -50 6 -12 3 -22 -10 -35 -21 -21 -35 -62 -21
-62 19 0 -9 -78 -29 -82 -14 -3 -14 -5 1 -20 18 -18 9 -31 -30 -40 -19 -5 -38
19 -149 186 -118 177 -501 774 -523 815 -9 17 -6 18 37 14 26 -2 167 -7 314
-11z m415 -124 c-3 -8 -6 -5 -6 6 -1 11 2 17 5 13 3 -3 4 -12 1 -19z m3626 15
c-7 -2 -19 -2 -25 0 -7 3 -2 5 12 5 14 0 19 -2 13 -5z m-2651 -513 c-16 -14
-64 -56 -106 -94 -42 -38 -78 -67 -80 -65 -4 4 174 475 196 519 11 21 13 -3
16 -155 l3 -180 -29 -25z m2480 358 c4 -7 8 -35 8 -63 0 -48 -9 -64 -253 -450
-140 -220 -293 -461 -341 -535 l-87 -135 -72 -6 c-40 -4 -137 -7 -216 -8 -119
-1 -148 -4 -163 -18 -37 -33 -24 -76 72 -244 50 -87 90 -161 90 -164 0 -8
-248 -396 -262 -410 -6 -5 1 13 15 40 33 66 51 156 42 214 -16 109 -53 151
-255 291 -154 107 -225 166 -379 318 -151 149 -173 177 -176 225 -2 18 -6 49
-10 69 l-7 37 53 15 c29 9 58 16 65 16 6 0 37 13 67 29 38 20 57 26 61 18 2
-7 5 -4 5 6 1 9 6 17 12 17 6 0 10 -12 8 -27 -1 -16 3 -41 10 -57 l12 -29 24
23 c14 13 31 20 39 17 9 -4 16 -2 16 3 0 6 7 10 15 10 8 0 15 -4 15 -10 0 -5
5 -10 10 -10 6 0 10 6 10 13 0 17 90 19 90 3 1 -6 10 0 20 13 11 13 20 19 20
15 0 -5 5 -2 10 6 5 8 7 25 3 37 -4 20 -1 23 23 23 23 0 26 2 14 10 -8 5 -13
10 -10 11 36 6 44 9 49 17 3 5 23 15 44 23 30 11 42 11 58 1 16 -10 23 -10 35
3 13 12 19 13 30 4 11 -9 14 -8 14 5 0 9 6 16 14 16 9 0 12 -7 9 -19 -8 -30
17 -37 37 -11 10 13 30 24 46 26 76 8 96 15 84 29 -7 8 -16 13 -19 10 -4 -2
-21 0 -37 5 -24 7 -25 8 -7 9 12 1 25 6 28 11 4 6 10 8 14 6 4 -3 15 6 25 20
11 13 25 24 33 24 8 0 11 4 8 10 -3 6 1 7 9 4 14 -5 21 6 14 21 -4 5 34 34 45
35 5 0 5 -5 1 -12 -4 -7 -3 -8 4 -4 7 4 12 13 12 20 0 13 53 31 75 27 5 -2 7
1 2 5 -4 4 -21 8 -37 9 -30 1 -69 25 -41 25 7 0 9 4 6 10 -3 5 3 17 15 27 27
23 25 41 -4 53 -17 6 -24 16 -23 31 1 20 5 21 71 14 39 -4 78 -11 88 -16 10
-6 19 -5 23 1 3 5 11 10 16 10 6 0 7 -4 4 -10 -3 -5 1 -10 10 -10 9 0 13 5 10
11 -4 6 -1 9 6 8 24 -4 71 20 63 32 -4 8 1 9 16 4 20 -6 22 -4 18 13 -5 17 3
24 43 41 27 11 49 25 49 31 0 6 5 8 10 5 6 -3 10 -1 10 6 0 7 11 10 30 7 17
-3 33 -1 36 3 2 5 11 6 19 2 8 -3 15 0 15 6 0 6 9 11 20 11 11 0 20 4 20 8 0
4 9 8 20 9 11 1 46 13 77 27 30 14 68 26 84 26 15 0 30 3 33 8 8 13 59 13 68
0z m-1793 -470 c-29 -27 -56 -48 -60 -48 -12 0 11 82 40 145 16 33 34 78 41
100 22 68 25 63 28 -45 l3 -105 -52 -47z m1181 242 c0 -5 -2 -10 -4 -10 -3 0
-8 5 -11 10 -3 6 -1 10 4 10 6 0 11 -4 11 -10z m-1827 -253 c46 -56 55 -72 43
-79 -10 -6 -35 7 -83 43 -37 28 -70 53 -72 55 -5 5 40 54 48 53 3 0 32 -32 64
-72z m-228 24 c-3 -6 -14 -11 -23 -11 -13 0 -13 2 4 14 21 15 30 14 19 -3z
m235 -121 c0 -6 -2 -10 -5 -10 -5 0 -154 79 -164 86 -2 2 2 10 9 18 10 13 22
8 86 -35 41 -27 74 -54 74 -59z m-263 49 c-16 -40 -2 -47 31 -16 16 15 31 27
35 27 4 0 43 -16 87 -36 55 -25 77 -40 73 -50 -7 -19 0 -18 44 6 45 24 103 26
148 4 52 -24 168 -151 205 -223 39 -79 46 -140 31 -280 -6 -57 -9 -106 -7
-109 7 -7 37 68 44 113 l7 39 66 -84 c129 -165 217 -317 275 -470 23 -62 28
-91 28 -165 0 -99 -12 -140 -73 -264 -46 -95 -88 -141 -129 -141 -34 0 -203
-43 -372 -94 -63 -19 -116 -33 -119 -31 -11 11 25 169 65 288 25 72 51 159 58
191 l12 60 53 17 c100 34 159 89 97 89 -13 0 -26 6 -29 13 -3 8 -16 2 -38 -19
-19 -16 -42 -36 -51 -43 -33 -25 -21 13 21 65 39 50 60 94 43 94 -5 0 -24 -24
-42 -52 -39 -62 -53 -49 -16 14 13 24 36 77 50 119 14 42 29 85 33 95 6 16 4
17 -8 7 -26 -21 -109 -205 -120 -268 -6 -33 -40 -152 -75 -265 -36 -113 -85
-286 -110 -385 -25 -99 -48 -182 -51 -185 -6 -6 2 36 29 147 l19 82 -58 73
c-32 40 -61 75 -64 78 -10 8 -77 152 -94 204 -17 49 -84 160 -92 152 -3 -2 1
-15 7 -28 8 -14 8 -19 1 -13 -11 11 -81 206 -81 228 0 6 -9 23 -20 37 -17 21
-19 21 -14 5 5 -17 2 -16 -15 5 -12 14 -24 38 -28 53 -3 16 -9 25 -14 20 -9
-9 -58 -245 -60 -284 0 -13 -3 -18 -6 -11 -6 15 19 166 48 287 24 100 25 185
4 185 -11 0 -15 -12 -15 -49 0 -28 -13 -105 -30 -173 -16 -67 -30 -132 -30
-145 0 -12 -4 -24 -9 -27 -9 -6 -25 93 -16 102 3 3 5 -8 5 -23 0 -53 16 -11
43 110 28 125 33 175 18 175 -5 0 -11 10 -14 23 -3 18 -7 14 -26 -26 -15 -33
-25 -80 -31 -150 l-9 -102 4 110 c4 98 7 116 34 167 24 47 26 56 11 48 -29
-16 -61 -94 -72 -177 -10 -72 -5 -146 17 -253 2 -14 -1 -7 -9 15 -8 25 -15 34
-18 25 -3 -8 -4 8 -2 35 3 38 1 44 -5 25 -7 -20 -9 -14 -10 31 -2 96 11 216
21 194 5 -14 6 -8 3 17 -7 46 51 175 144 321 106 167 161 283 161 339 0 51
-13 85 -39 104 -22 17 1 43 33 37 21 -4 23 -7 13 -34z m1068 -169 c-3 -5 -14
-10 -23 -9 -14 0 -13 2 3 9 27 11 27 11 20 0z m-58 -16 c-3 -3 -12 -4 -19 -1
-8 3 -5 6 6 6 11 1 17 -2 13 -5z m-1853 -50 c4 -10 1 -14 -6 -12 -15 5 -23 28
-10 28 5 0 13 -7 16 -16z m60 -100 c10 -25 -1 -29 -14 -5 -6 12 -7 21 -1 21 5
0 12 -7 15 -16z m1676 -352 c84 -81 220 -190 415 -331 72 -52 142 -108 157
-125 37 -42 52 -104 45 -176 -6 -51 -16 -84 -64 -199 -5 -10 -2 -12 7 -6 14 9
5 -8 -93 -165 -109 -176 -140 -217 -164 -217 -18 0 -25 8 -34 41 -6 22 -13 44
-16 48 -2 4 20 18 49 31 66 29 157 112 210 190 22 32 38 61 35 63 -2 2 -17
-14 -32 -37 -64 -91 -201 -189 -265 -189 -19 0 -76 11 -125 25 -50 14 -104 25
-120 25 -38 0 -231 -47 -390 -95 -66 -20 -128 -38 -138 -41 -15 -5 -18 -1 -15
16 3 19 20 27 118 56 213 63 375 104 411 104 58 0 109 67 174 230 34 84 39
105 39 180 0 100 -18 158 -100 323 -64 128 -125 220 -228 342 -90 108 -101
150 -13 50 34 -38 96 -102 137 -143z m1373 31 c-7 -2 -19 -2 -25 0 -7 3 -2 5
12 5 14 0 19 -2 13 -5z m-289 -65 c-71 -116 -204 -309 -204 -296 0 16 -92 183
-131 240 -11 14 -19 31 -19 37 0 7 55 12 173 13 l172 2 -180 6 -180 6 188 2
c148 2 187 -1 181 -10z m194 -24 c-14 -14 -21 -15 -46 -5 -65 27 -115 -32 -74
-88 l20 -28 -36 -38 -37 -39 43 37 c26 23 52 37 69 37 33 0 63 26 63 55 0 23
65 93 76 82 4 -4 0 -15 -8 -24 -9 -10 -53 -92 -97 -183 -45 -91 -87 -173 -95
-184 -8 -10 -12 -26 -9 -35 4 -9 3 -13 -2 -9 -4 4 -16 3 -26 -2 -12 -7 -20 -6
-25 1 -4 7 -21 9 -44 5 -36 -6 -69 11 -53 27 3 4 -6 7 -20 7 -28 0 -53 31 -43
56 3 8 41 69 84 137 43 67 91 141 105 165 l27 42 72 0 c67 0 71 -1 56 -16z
m-2524 -53 c-7 -27 -14 -84 -16 -125 -3 -74 -3 -75 -21 -53 -20 25 -16 63 15
165 22 73 41 84 22 13z m2506 -11 c0 -16 -4 -31 -9 -34 -4 -3 -6 6 -3 19 2 14
-1 32 -8 40 -11 13 -10 14 4 9 9 -4 16 -17 16 -34z m-266 -355 c26 -26 19 -33
-13 -15 -21 10 -36 40 -21 40 5 0 20 -11 34 -25z m230 3 c-3 -4 0 -8 6 -8 7 0
10 -7 6 -15 -3 -8 -1 -15 4 -15 16 0 7 -22 -22 -55 -27 -29 -29 -29 -55 -14
-32 18 -35 52 -8 93 13 19 25 26 46 24 15 -1 25 -6 23 -10z m-144 -17 c0 -5
-6 -12 -12 -14 -7 -3 -3 -6 10 -6 21 -1 22 -5 22 -88 0 -67 -4 -91 -17 -105
-9 -11 -18 -24 -19 -31 -2 -7 -6 -22 -9 -34 -5 -16 -1 -25 17 -37 22 -14 24
-23 24 -83 -1 -63 -3 -67 -26 -74 -21 -5 -22 -7 -8 -13 9 -4 25 -6 35 -4 16 3
18 12 14 82 -2 56 0 77 8 72 6 -4 11 -22 11 -39 l0 -32 20 33 c19 32 22 33 42
20 39 -26 43 -42 18 -71 -27 -31 -55 -35 -69 -10 -5 10 -12 16 -14 13 -3 -3 7
-23 22 -45 22 -33 35 -41 84 -53 44 -11 57 -18 57 -33 0 -17 -8 -19 -77 -17
l-78 2 75 7 c42 4 -17 5 -132 3 -176 -4 -208 -3 -208 9 0 9 14 17 34 21 22 4
51 23 80 52 l46 45 0 207 c0 209 4 232 37 232 7 0 13 -4 13 -9z m-160 -76 c15
-24 29 -35 41 -33 34 5 21 -17 -17 -30 -37 -12 -157 -92 -170 -113 -14 -23 4
-15 61 28 33 24 69 49 80 55 20 11 20 11 0 -11 -14 -17 -17 -26 -9 -38 18 -28
33 -26 69 10 25 25 35 30 35 19 0 -30 -39 -81 -81 -109 -48 -32 -174 -150
-144 -135 11 6 36 26 54 46 19 20 38 36 41 36 3 0 3 -26 0 -57 -6 -56 -29
-115 -50 -128 -5 -3 -10 -11 -10 -16 0 -6 4 -8 9 -4 5 3 12 1 16 -5 3 -5 22
-10 42 -10 35 0 35 0 29 -35 -10 -52 14 -56 86 -17 68 37 75 36 18 -2 -23 -15
-38 -31 -35 -35 2 -5 -1 -8 -8 -7 -6 0 -44 -16 -83 -36 -74 -38 -148 -106
-232 -212 -75 -95 -440 -456 -461 -456 -10 0 -24 -7 -31 -15 -7 -8 -25 -15
-41 -15 l-28 0 30 32 c31 34 36 52 18 64 -17 10 6 27 43 30 18 1 36 3 39 3 13
2 38 70 28 77 -10 6 -9 26 3 74 6 22 30 64 41 71 19 13 -4 28 -32 23 -38 -8
-47 10 -22 42 12 15 21 31 21 36 0 4 29 55 65 112 48 77 79 114 120 145 77 58
126 125 165 222 56 142 116 250 191 342 39 48 75 87 79 87 5 0 18 -16 30 -35z
m311 -142 c5 -39 3 -43 -23 -54 -15 -6 -28 -16 -28 -22 0 -6 -3 -8 -6 -5 -3 4
-22 0 -41 -8 -19 -9 -38 -13 -41 -10 -3 3 -3 7 -1 9 2 1 18 10 34 19 33 19 39
45 13 61 -13 9 -22 7 -37 -7 -29 -26 -27 -5 2 22 28 27 65 42 97 39 21 -2 26
-8 31 -44z m-258 -245 c-57 -58 -105 -66 -65 -11 11 16 25 46 31 69 6 22 22
51 36 64 14 13 26 35 27 49 1 14 4 -10 5 -53 l4 -79 -38 -39z m-850 -130 l87
-42 17 -55 c28 -93 23 -143 -17 -206 -19 -30 -40 -55 -47 -55 -6 0 -29 21 -52
46 -37 42 -45 47 -110 58 -39 6 -76 17 -83 24 -6 6 -26 12 -43 12 -19 0 -35 7
-43 20 -8 14 -23 20 -47 20 -24 0 -37 6 -45 20 -7 13 -21 20 -39 20 -29 0 -80
14 -118 32 -26 13 -109 2 -120 -15 -4 -7 -10 -30 -14 -52 l-6 -40 -1 35 c-1
65 6 70 129 107 161 48 409 112 439 112 14 1 64 -18 113 -41z m-756 -200 c-3
-8 -6 -5 -6 6 -1 11 2 17 5 13 3 -3 4 -12 1 -19z m1043 -442 c0 -2 -8 -10 -17
-17 -16 -13 -17 -12 -4 4 13 16 21 21 21 13z m-30 -39 c0 -2 -10 -12 -22 -23
l-23 -19 19 23 c18 21 26 27 26 19z"/>
<path d="M4370 5840 c-8 -5 -12 -12 -9 -15 4 -3 12 1 19 10 14 17 11 19 -10 5z"/>
<path d="M4054 5598 c-29 -31 -29 -31 -2 -12 15 10 29 25 32 32 8 18 2 15 -30
-20z"/>
<path d="M4104 5608 l-19 -23 23 19 c21 18 27 26 19 26 -2 0 -12 -10 -23 -22z"/>
<path d="M1268 4693 c7 -3 16 -2 19 1 4 3 -2 6 -13 5 -11 0 -14 -3 -6 -6z"/>
<path d="M1207 4679 c7 -7 15 -10 18 -7 3 3 -2 9 -12 12 -14 6 -15 5 -6 -5z"/>
<path d="M1261 4644 c0 -11 3 -14 6 -6 3 7 2 16 -1 19 -3 4 -6 -2 -5 -13z"/>
<path d="M1070 4616 c0 -2 9 -6 20 -9 11 -3 18 -1 14 4 -5 9 -34 13 -34 5z"/>
<path d="M1264 4328 c-5 -45 -9 -57 -15 -43 -5 13 -8 15 -8 5 -1 -25 12 -40
24 -26 10 11 20 126 11 126 -3 0 -8 -28 -12 -62z"/>
<path d="M4587 5703 c-4 -3 -7 -13 -7 -22 1 -13 3 -13 11 2 11 19 8 33 -4 20z"/>
<path d="M3959 5483 c-13 -16 -12 -17 4 -4 9 7 17 15 17 17 0 8 -8 3 -21 -13z"/>
<path d="M3730 4116 c-6 -8 -18 -12 -26 -9 -8 3 -14 3 -14 0 0 -15 31 -13 46
4 9 10 15 19 12 19 -3 0 -11 -6 -18 -14z"/>
<path d="M3524 3765 c4 -12 77 -7 91 6 6 6 -10 8 -43 7 -29 -2 -50 -7 -48 -13z"/>
<path d="M3610 3739 c0 -13 32 -19 51 -9 26 14 24 16 -16 16 -19 0 -35 -3 -35
-7z"/>
<path d="M3510 3619 c-63 -22 -130 -50 -130 -55 0 -2 26 -30 58 -63 43 -45 66
-61 96 -67 69 -12 98 15 130 120 18 63 13 74 -32 73 -20 -1 -44 2 -52 5 -8 4
-40 -2 -70 -13z m21 -142 c-6 -6 -20 -2 -40 12 -45 32 -38 44 10 19 26 -13 37
-24 30 -31z"/>
<path d="M4690 3591 c0 -5 5 -13 10 -16 6 -3 10 -2 10 4 0 5 -4 13 -10 16 -5
3 -10 2 -10 -4z"/>
<path d="M4720 3578 c0 -4 9 -8 20 -8 11 0 20 4 20 9 0 6 -9 9 -20 8 -11 -1
-20 -5 -20 -9z"/>
<path d="M2512 2662 c-25 -58 -29 -92 -5 -47 8 17 21 37 28 45 7 8 10 23 6 34
-6 15 -12 9 -29 -32z"/>
<path d="M4712 2334 l-67 -66 73 62 c39 35 72 65 72 66 0 11 -17 -2 -78 -62z"/>
<path d="M4728 2203 c18 -2 45 -2 60 0 15 2 0 4 -33 4 -33 0 -45 -2 -27 -4z"/>
<path d="M4855 2153 c-17 -25 -17 -27 1 -40 25 -18 33 -17 46 12 8 19 8 28 -2
40 -17 21 -25 19 -45 -12z"/>
<path d="M4848 1785 c-9 -21 -9 -29 4 -42 15 -14 18 -13 33 11 14 21 15 29 5
41 -18 21 -29 19 -42 -10z"/>
<path d="M4330 1616 c0 -11 72 -127 96 -156 46 -54 36 -27 -21 60 -30 46 -55
87 -55 92 0 4 -4 8 -10 8 -5 0 -10 -2 -10 -4z"/>
</g>
</svg>
